<svg width="585" height="585" viewBox="0 0 585 585" fill="none" xmlns="http://www.w3.org/2000/svg">
<rect width="584.339" height="584.339" rx="97.3899" fill="white"/>
<g clip-path="url(#clip0_105_37)">
<path d="M462.221 355.856C450.466 375.737 419.023 418.209 387 428.9C355.895 441.864 282.222 460.053 236.606 428.9C235.493 428.271 234.284 427.642 233.074 426.917C255.423 426.723 280.287 419.129 293.106 415.742C354.493 393.636 377.228 344.246 382.84 321.317C392.272 282.908 372.246 240.291 358.991 220.361C340.029 188.869 308.634 172.616 290.978 168.262C278.594 164.973 252.182 164.489 244.878 164.779C222.045 165.747 208.065 170.632 198.052 176.728C204.195 170.1 219.53 155.443 232.978 147.752C251.989 136.384 300.894 116.357 344.576 127.048C373.262 132.707 427.44 152.009 452.498 192.788C467.445 217.12 496.179 284.649 462.221 355.856Z" fill="#2E57FF"/>
<path d="M233.075 426.916C223.352 427.013 214.064 425.658 206.518 421.933C191.086 415.645 169.85 400.552 153.693 379.8C164.771 384.976 177.542 386.475 189.683 385.992C204.147 405.728 220.546 419.418 233.075 426.916Z" fill="#699EF5"/>
<path d="M198.051 176.727C198.051 176.727 197.857 176.872 197.809 176.969C188.376 187.079 181.072 197.141 175.364 206.864C169.897 208.218 164.576 210.057 159.497 212.282C165.447 204.784 172.461 197.383 180.636 190.32C185.667 185.87 190.843 180.984 198.051 176.727Z" fill="#699EF5"/>
<path d="M382.84 321.316C377.229 344.245 354.493 393.634 293.107 415.741C280.287 419.127 255.423 426.722 233.075 426.916C220.546 419.418 204.147 405.728 189.683 385.991C204.583 385.459 218.563 381.976 227.56 378.784C253.634 370.802 271.629 351.888 278.353 340.472C283.287 332.442 289.188 314.447 290.543 309.367C297.654 282.326 291.172 271.249 286.237 261.187C263.308 213.249 217.45 203.477 197.375 204.59C189.974 204.251 182.524 205.122 175.365 206.863C181.073 197.14 188.377 187.078 197.81 176.968C197.859 176.872 197.955 176.823 198.052 176.726C208.065 170.631 222.045 165.746 244.878 164.778C252.182 164.488 278.594 164.972 290.978 168.261C308.634 172.615 340.029 188.868 358.992 220.36C372.246 240.29 392.273 282.907 382.84 321.316Z" fill="#3674F6"/>
<path d="M189.682 385.992C177.54 386.476 164.77 384.976 153.692 379.8C142.953 366.11 134.488 349.953 131.247 332.249C124.571 309.658 122.878 258.237 159.449 212.282C164.528 210.056 169.849 208.218 175.315 206.864C161.432 230.519 157.368 251.997 156.498 265.783C152.676 317.93 169.22 358.032 189.634 385.992H189.682Z" fill="#12C1D9"/>
<path d="M131.248 332.249C134.489 349.954 142.954 366.111 153.693 379.801C153.064 379.559 152.435 379.269 151.855 378.978C137.004 371.432 107.254 347.922 104.739 302.257C105.223 288.858 104.932 256.931 118.719 241.887C126.362 232.261 141.454 220.07 159.45 212.282C122.879 258.237 124.572 309.659 131.248 332.249Z" fill="#4DDFDC"/>
<path d="M290.542 309.368C289.187 314.448 283.286 332.443 278.352 340.473C271.628 351.889 253.633 370.803 227.559 378.785C218.562 381.977 204.582 385.46 189.682 385.992C169.269 358.032 152.725 317.931 156.546 265.784C157.417 251.997 161.481 230.519 175.364 206.864C182.523 205.123 189.973 204.252 197.374 204.591C217.449 203.478 263.307 213.25 286.237 261.188C291.171 271.25 297.653 282.327 290.542 309.368Z" fill="#03B6D9"/>
</g>
<defs>
<clipPath id="clip0_105_37">
<rect width="398" height="336" fill="white" transform="translate(93 124)"/>
</clipPath>
</defs>
</svg>
