<svg width="943" height="692" viewBox="0 0 943 692" fill="none" xmlns="http://www.w3.org/2000/svg">
<rect width="943" height="691.186" fill="white"/>
<g clip-path="url(#clip0_105_29)">
<path d="M107.41 481.106H121.342V575.145H107.41V481.106ZM161.057 577.128C140.014 577.128 127.243 562.519 127.243 541.622C127.243 520.724 140.014 506.115 161.057 506.115C182.099 506.115 194.87 520.724 194.87 541.622C194.87 562.519 182.099 577.128 161.057 577.128ZM161.057 565.808C174.214 565.808 181.035 555.408 181.035 541.622C181.035 527.835 174.214 517.435 161.057 517.435C147.899 517.435 141.078 527.69 141.078 541.622C141.078 555.553 147.899 565.808 161.057 565.808ZM236.617 506.115C249.097 506.115 258.965 513.323 258.965 528.754V575.193H245.034V532.721C245.034 523.627 241.212 517.87 231.731 517.87C221.089 517.87 214.219 524.304 214.219 534.317V575.241H200.385V508.002H214.219V516.661H214.461C217.993 511.388 225.007 506.164 236.568 506.164L236.617 506.115ZM314.208 507.953H327.995V570.549C327.995 589.899 316.288 598.412 297.229 598.412C278.17 598.412 267.237 588.302 265.786 576.983H279.718C281.024 582.884 285.764 587.383 296.697 587.383C308.258 587.383 314.208 582.11 314.208 570.017V561.842H313.918C310.387 566.824 304.195 571.855 293.552 571.855C276.718 571.855 264.093 560.149 264.093 538.961C264.093 517.773 276.718 506.067 293.552 506.067C304.195 506.067 310.387 511.049 313.918 515.79H314.208V507.905V507.953ZM296.165 560.584C307.339 560.584 314.063 553.231 314.063 539.009C314.063 524.787 307.339 517.435 296.165 517.435C284.071 517.435 277.879 526.529 277.879 539.009C277.879 551.49 284.071 560.584 296.165 560.584ZM366.887 565.857C378.352 565.857 382.947 558.746 384.108 554.682H397.895C394.46 567.453 384.495 577.176 367.274 577.176C346.377 577.176 333.606 562.713 333.606 541.67C333.606 520.627 346.377 506.164 366.597 506.164C388.317 506.164 398.959 521.305 398.959 545.201H347.392C347.392 556.521 354.649 565.857 366.839 565.857H366.887ZM366.645 517.048C355.471 517.048 347.441 524.546 347.441 534.946H385.172C385.172 524.546 377.82 517.048 366.645 517.048ZM396.395 507.953H411.004L427.983 560.584H428.128L445.107 507.953H459.716L435.916 575.193H420.243L396.443 507.953H396.395ZM470.117 496.634C466.295 496.634 462.377 494.022 462.377 489.281C462.377 484.541 466.344 482.025 470.117 482.025C474.18 482.025 478.002 484.541 478.002 489.281C478.002 494.022 474.18 496.634 470.117 496.634ZM463.296 507.953H477.083V575.193H463.296V507.953ZM519.313 519.273H506.687V555.698C506.687 563.341 510.364 564.26 519.313 563.728V575.048C516.556 575.725 513.508 576.112 509.832 576.112C498.802 576.112 492.756 571.13 492.756 556.908V519.273H483.033V507.953H492.756V486.766H506.687V507.953H519.313V519.273ZM585.343 507.953L558.496 579.353C554.674 589.753 550.32 598.025 537.453 598.025C533.486 598.025 530.197 597.348 527.585 596.719V586.174H528.746C534.551 586.948 538.856 586.561 541.903 582.884C544.419 579.885 546.257 574.612 543.742 568.276L519.41 507.905H534.26L553.078 559.326H553.368L570.589 507.905H585.295L585.343 507.953Z" fill="#222222"/>
<path d="M604.788 481.106H608.997V575.145H604.788V481.106ZM654.516 506.599C665.062 506.599 674.785 513.42 674.785 526.722V575.145H670.818V529.383C670.818 519.37 667.529 510.033 652.678 510.033C637.827 510.033 628.878 521.353 628.878 528.561V575.145H624.912V507.518H628.878V519.757H629.12C633.329 513.323 640.294 506.599 654.516 506.599ZM739.412 481.106H743.379V575.145H739.412V558.31H739.17C735.349 568.034 726.932 576.596 713.774 576.596C697.714 576.596 684.847 563.728 684.847 541.622C684.847 519.515 697.762 506.647 713.774 506.647C726.932 506.647 735.204 514.919 739.17 525.32H739.412V481.106ZM714.693 573.161C727.706 573.161 739.412 561.31 739.412 541.573C739.412 521.837 727.706 510.033 714.693 510.033C699.552 510.033 688.765 521.885 688.765 541.573C688.765 561.261 699.552 573.161 714.693 573.161ZM760.794 491.361C759.342 491.361 757.504 490.2 757.504 488.217C757.504 486.137 759.342 485.073 760.794 485.073C762.39 485.073 764.083 486.137 764.083 488.217C764.083 490.2 762.39 491.361 760.794 491.361ZM758.81 507.566H762.777V575.193H758.81V507.566ZM821.067 525.078C821.067 514.822 813.327 510.082 802.927 510.082C789.382 510.082 782.126 516.516 781.498 526.674H777.531C778.208 517.338 783.965 506.696 802.927 506.696C815.166 506.696 825.034 511.823 825.034 527.496V561.697C825.034 566.969 824.357 574.177 835.047 571.952V575.386C833.354 575.773 831.758 575.919 830.694 575.919C823.873 575.919 821.067 572.774 821.067 564.212H820.825C815.456 573.161 806.749 576.693 796.106 576.693C783.239 576.693 774.387 569.727 774.387 558.794C774.387 546.169 782.271 540.654 799.638 537.994C809.748 536.397 821.067 536.687 821.067 525.126V525.078ZM797.122 573.21C813.569 573.21 821.067 562.18 821.067 554.537V534.559C819.084 538.913 810.812 540.219 800.944 541.38C788.028 542.976 778.305 546.798 778.305 557.537C778.305 568.276 785.029 573.21 797.122 573.21Z" fill="#222222"/>
<path d="M652.631 324.084C640.876 343.966 609.433 386.438 577.41 397.129C546.306 410.093 472.632 428.281 427.016 397.129C425.903 396.5 424.694 395.871 423.485 395.145C445.833 394.952 470.697 387.357 483.516 383.971C544.903 361.864 567.638 312.474 573.25 289.545C582.683 251.137 562.656 208.519 549.401 188.589C530.439 157.098 499.044 140.844 481.388 136.491C469.004 133.201 442.592 132.718 435.288 133.008C412.455 133.975 398.475 138.861 388.462 144.956C394.605 138.329 409.94 123.672 423.388 115.98C442.399 104.612 491.305 84.5856 534.986 95.2762C563.672 100.936 617.85 120.237 642.908 161.016C657.855 185.348 686.589 252.878 652.631 324.084Z" fill="#2E57FF"/>
<path d="M423.485 395.144C413.762 395.241 404.474 393.887 396.928 390.162C381.496 383.873 360.26 368.781 344.104 348.028C355.181 353.204 367.952 354.704 380.094 354.22C394.557 373.957 410.956 387.646 423.485 395.144Z" fill="#699EF5"/>
<path d="M388.461 144.956C388.461 144.956 388.268 145.101 388.219 145.197C378.786 155.308 371.482 165.369 365.774 175.092C360.308 176.447 354.986 178.285 349.907 180.51C355.857 173.012 362.871 165.611 371.047 158.549C376.077 154.098 381.253 149.212 388.461 144.956Z" fill="#699EF5"/>
<path d="M573.25 289.544C567.639 312.473 544.903 361.863 483.517 383.97C470.698 387.356 445.833 394.951 423.485 395.144C410.956 387.646 394.557 373.956 380.094 354.22C394.993 353.688 408.973 350.205 417.97 347.012C444.044 339.031 462.039 320.116 468.763 308.7C473.697 300.67 479.598 282.675 480.953 277.596C488.064 250.555 481.582 239.477 476.648 229.416C453.718 181.477 407.86 171.706 387.785 172.818C380.384 172.48 372.934 173.35 365.775 175.092C371.483 165.369 378.787 155.307 388.22 145.197C388.269 145.1 388.365 145.052 388.462 144.955C398.476 138.86 412.456 133.974 435.288 133.007C442.592 132.716 469.005 133.2 481.388 136.49C499.045 140.843 530.439 157.097 549.402 188.588C562.656 208.518 582.683 251.135 573.25 289.544Z" fill="#3674F6"/>
<path d="M380.092 354.22C367.951 354.704 355.18 353.205 344.102 348.029C333.363 334.339 324.898 318.182 321.657 300.477C314.981 277.887 313.288 226.465 349.859 180.51C354.938 178.285 360.259 176.447 365.725 175.092C351.842 198.747 347.779 220.225 346.908 234.012C343.086 286.158 359.63 326.26 380.044 354.22H380.092Z" fill="#12C1D9"/>
<path d="M321.658 300.478C324.899 318.183 333.364 334.339 344.103 348.029C343.474 347.787 342.845 347.497 342.265 347.207C327.414 339.66 297.664 316.151 295.149 270.486C295.633 257.086 295.342 225.16 309.129 210.115C316.772 200.489 331.865 188.299 349.86 180.511C313.289 226.466 314.982 277.887 321.658 300.478Z" fill="#4DDFDC"/>
<path d="M480.952 277.597C479.597 282.676 473.696 300.671 468.762 308.701C462.038 320.117 444.043 339.032 417.969 347.013C408.972 350.206 394.992 353.689 380.093 354.221C359.679 326.261 343.135 286.159 346.957 234.012C347.827 220.226 351.891 198.748 365.774 175.093C372.933 173.351 380.383 172.481 387.784 172.819C407.859 171.707 453.718 181.478 476.647 229.417C481.581 239.478 488.063 250.556 480.952 277.597Z" fill="#03B6D9"/>
</g>
<defs>
<clipPath id="clip0_105_29">
<rect width="727.59" height="506.183" fill="white" transform="translate(107.41 92.2285)"/>
</clipPath>
</defs>
</svg>
